<svg xmlns="http://www.w3.org/2000/svg" viewBox="0 0 390 780" fill="none" role="img" aria-labelledby="title desc">
  <title id="title">Screenshot placeholder</title>
  <desc id="desc">App screenshot will be added here</desc>
  <defs>
    <linearGradient id="bg" x1="0" y1="0" x2="390" y2="780" gradientUnits="userSpaceOnUse">
      <stop stop-color="#E8F6F0"/>
      <stop offset="1" stop-color="#D6EEE6"/>
    </linearGradient>
    <linearGradient id="accent" x1="0" y1="0" x2="1" y2="1">
      <stop stop-color="#1B8A6B"/>
      <stop offset="1" stop-color="#0F6B52"/>
    </linearGradient>
  </defs>
  <rect width="390" height="780" rx="36" fill="url(#bg)" stroke="#B8D9CC" stroke-width="2"/>
  <rect x="145" y="18" width="100" height="28" rx="14" fill="#C5E3D6"/>
  <rect x="24" y="72" width="342" height="56" rx="12" fill="#fff" stroke="#C5E3D6"/>
  <rect x="24" y="144" width="342" height="44" rx="10" fill="#fff" stroke="#C5E3D6"/>
  <rect x="24" y="200" width="342" height="72" rx="12" fill="#fff" stroke="#C5E3D6"/>
  <rect x="24" y="284" width="342" height="72" rx="12" fill="#fff" stroke="#C5E3D6"/>
  <rect x="24" y="368" width="342" height="72" rx="12" fill="#fff" stroke="#C5E3D6"/>
  <rect x="24" y="452" width="342" height="52" rx="12" fill="url(#accent)" opacity="0.15"/>
  <circle cx="48" cy="100" r="10" fill="#1B8A6B" opacity="0.35"/>
  <circle cx="48" cy="236" r="10" fill="#1565C0" opacity="0.35"/>
  <circle cx="48" cy="320" r="10" fill="#EF6C00" opacity="0.35"/>
  <rect x="72" y="92" width="180" height="10" rx="5" fill="#94A3B8" opacity="0.45"/>
  <rect x="72" y="110" width="240" height="8" rx="4" fill="#CBD5E1" opacity="0.55"/>
  <rect x="72" y="228" width="160" height="10" rx="5" fill="#94A3B8" opacity="0.45"/>
  <rect x="72" y="246" width="220" height="8" rx="4" fill="#CBD5E1" opacity="0.55"/>
  <text x="195" y="520" text-anchor="middle" fill="#1B8A6B" font-family="Segoe UI, sans-serif" font-size="15" font-weight="600">Screenshot coming soon</text>
  <text x="195" y="544" text-anchor="middle" fill="#64748B" font-family="Segoe UI, sans-serif" font-size="12">????????????</text>
</svg>
